<svg xmlns="http://www.w3.org/2000/svg" viewBox="0 0 1200 760" role="img" aria-labelledby="title desc">
  <title id="title">Image analysis and pattern recognition visual</title>
  <desc id="desc">A stylized grid of image patches, feature points, and classification lines.</desc>
  <rect width="1200" height="760" fill="#f7f4ed"/>
  <rect x="86" y="78" width="1028" height="604" rx="22" fill="#ffffff" stroke="#d8d2c6" stroke-width="3"/>
  <g fill="none" stroke="#0e6f68" stroke-width="7" stroke-linecap="round" opacity="0.82">
    <path d="M214 536 C318 392, 421 429, 514 286 S735 125, 943 244"/>
    <path d="M243 278 C381 348, 469 185, 587 267 S768 458, 964 379"/>
  </g>
  <g fill="#e8f1ef" stroke="#0a4c47" stroke-width="3">
    <rect x="154" y="144" width="176" height="132" rx="14"/>
    <rect x="388" y="144" width="176" height="132" rx="14"/>
    <rect x="622" y="144" width="176" height="132" rx="14"/>
    <rect x="856" y="144" width="176" height="132" rx="14"/>
    <rect x="154" y="342" width="176" height="132" rx="14"/>
    <rect x="388" y="342" width="176" height="132" rx="14"/>
    <rect x="622" y="342" width="176" height="132" rx="14"/>
    <rect x="856" y="342" width="176" height="132" rx="14"/>
  </g>
  <g fill="#c95b32">
    <circle cx="242" cy="210" r="15"/>
    <circle cx="476" cy="210" r="15"/>
    <circle cx="710" cy="210" r="15"/>
    <circle cx="944" cy="210" r="15"/>
    <circle cx="242" cy="408" r="15"/>
    <circle cx="476" cy="408" r="15"/>
    <circle cx="710" cy="408" r="15"/>
    <circle cx="944" cy="408" r="15"/>
  </g>
  <g stroke="#17201b" stroke-width="4" opacity="0.8">
    <line x1="242" y1="210" x2="476" y2="210"/>
    <line x1="476" y1="210" x2="710" y2="210"/>
    <line x1="710" y1="210" x2="944" y2="210"/>
    <line x1="242" y1="408" x2="476" y2="408"/>
    <line x1="476" y1="408" x2="710" y2="408"/>
    <line x1="710" y1="408" x2="944" y2="408"/>
    <line x1="242" y1="210" x2="242" y2="408"/>
    <line x1="476" y1="210" x2="476" y2="408"/>
    <line x1="710" y1="210" x2="710" y2="408"/>
    <line x1="944" y1="210" x2="944" y2="408"/>
  </g>
  <text x="154" y="594" fill="#17201b" font-family="Inter, Arial, sans-serif" font-size="42" font-weight="800">Image Analysis</text>
  <text x="154" y="642" fill="#5d675f" font-family="Inter, Arial, sans-serif" font-size="30" font-weight="650">feature extraction · recognition · classification</text>
</svg>
