<svg xmlns="http://www.w3.org/2000/svg" viewBox="0 0 1200 750" role="img" aria-labelledby="title desc">
  <title id="title">Project image placeholder two</title>
  <desc id="desc">Graphic placeholder for a portfolio project screenshot.</desc>
  <rect width="1200" height="750" fill="#17201b"/>
  <path d="M0 520 C240 410 410 620 650 480 C880 345 980 260 1200 330 L1200 750 L0 750 Z" fill="#0e6f68"/>
  <path d="M0 610 C250 510 420 710 700 565 C920 450 1010 440 1200 510 L1200 750 L0 750 Z" fill="#c95b32" opacity=".82"/>
  <rect x="130" y="110" width="940" height="420" rx="28" fill="#f7f4ed"/>
  <rect x="185" y="170" width="225" height="290" rx="18" fill="#0e6f68"/>
  <rect x="455" y="170" width="225" height="290" rx="18" fill="#d8d2c6"/>
  <rect x="725" y="170" width="225" height="290" rx="18" fill="#c95b32"/>
  <text x="130" y="660" fill="#ffffff" font-family="Arial, sans-serif" font-size="64" font-weight="700">Project Two</text>
</svg>
